PathFileType	4	(X/Y/Z)	HSS_squat5.trc
DataRate	CameraRate	NumFrames	NumMarkers	Units	OrigDataRate	OrigDataStartFrame	OrigNumFrames
120.0	120.0	4	44	mm	120.0	1	980
Frame#	Time		R.Shoulder		Offset		L.Shoulder		R.Elbow		R.Wrist.Radial		R.Wrist		R.Hand		L.Elbow		L.Wrist.Radial		L.Wrist		L.Hand		R.Hip		V.Sacral		L.PSIS		L.Hip		R.Thigh.Upper		R.Thigh.Front		R.Thigh.Rear		X.Shell.Lower.Thigh.Right		R.Knee.Lateral		R.Shank.Upper		R.Shank.Front		R.Shank.Rear		X.Shell.Lower.Shank.Right		R.Ankle.Lateral		R.Heel		R.Toe		L.Thigh.Upper		L.Thigh.Front		L.Thigh.Rear		X.Shell.Lower.Thigh.Left		L.Knee.Lateral		L.Shank.Upper		L.Shank.Front		L.Shank.Rear		X.Shell.Lower.Shank.Left		L.Ankle.Lateral		L.Heel		L.Toe		R.Troc		L.Troc		R.PSIS		L.ASIS		R.ASIS
			X1	Y1	Z1	X2	Y2	Z2	X3	Y3	Z3	X4	Y4	Z4	X5	Y5	Z5	X6	Y6	Z6	X7	Y7	Z7	X8	Y8	Z8	X9	Y9	Z9	X10	Y10	Z10	X11	Y11	Z11	X12	Y12	Z12	X13	Y13	Z13	X14	Y14	Z14	X15	Y15	Z15	X16	Y16	Z16	X17	Y17	Z17	X18	Y18	Z18	X19	Y19	Z19	X20	Y20	Z20	X21	Y21	Z21	X22	Y22	Z22	X23	Y23	Z23	X24	Y24	Z24	X25	Y25	Z25	X26	Y26	Z26	X27	Y27	Z27	X28	Y28	Z28	X29	Y29	Z29	X30	Y30	Z30	X31	Y31	Z31	X32	Y32	Z32	X33	Y33	Z33	X34	Y34	Z34	X35	Y35	Z35	X36	Y36	Z36	X37	Y37	Z37	X38	Y38	Z38	X39	Y39	Z39	X40	Y40	Z40	X41	Y41	Z41	X42	Y42	Z42	X43	Y43	Z43	X44	Y44	Z44

1	0.00000	134.50607	1485.64917	-78.76653	-146.22195	1385.12354	27.95635	-194.88042	1500.02905	-86.96551	302.00125	1338.12805	-356.97971	75.45027	1402.72644	-444.17673	95.09506	1439.62683	-508.40607	7.46143	1446.53113	-524.79523	-370.92563	1363.00024	-369.42661	-113.33851	1391.92639	-461.97104	-153.81512	1436.33167	-505.90433	-67.64210	1425.85217	-514.62085	123.87765	1033.98694	-135.98019	-28.23402	1020.23907	-20.62003	-68.63261	1025.68079	-23.80090	-174.85286	1032.09644	-143.08176	179.12920	696.85828	-170.81178	167.98842	657.64886	-204.11116	190.31139	659.55963	-146.40488	176.85651	625.07831	-174.14586	170.14523	518.89807	-110.43743	230.94186	379.16733	-91.00274	213.52988	333.85251	-120.06805	220.64513	341.31802	-59.87518	217.91563	300.78607	-83.68430	190.16824	71.96602	-81.45629	142.23849	33.03898	-41.26256	201.84740	31.70954	-237.18483	-221.23996	696.06598	-187.24454	-203.60748	644.56268	-206.19769	-238.26619	661.78015	-156.75197	-229.47121	625.88068	-182.20317	-216.67278	510.46378	-113.04422	-274.32620	316.26077	-78.49254	-261.26672	291.20724	-107.14573	-263.55722	275.81464	-48.93955	-269.74280	245.74507	-72.12067	-240.84644	75.60915	-94.46937	-196.71458	34.48893	-41.49452	-241.50255	32.64687	-240.64558	162.02251	900.59436	-144.68510	-212.93100	904.23682	-142.78043	15.35174	1022.77606	-20.46891	-131.77647	999.12744	-208.89204	92.33414	996.89471	-198.48116
2	0.00833	134.55858	1485.60449	-78.73054	-146.19791	1385.11609	27.94456	-194.82954	1500.00623	-86.98766	302.10840	1338.13281	-356.89371	75.63899	1402.75623	-444.18524	95.24728	1439.54810	-508.48798	7.60103	1446.44482	-524.82831	-370.83859	1363.16321	-369.53455	-113.33619	1391.80408	-462.13177	-153.66026	1436.34363	-506.00064	-67.37889	1425.68066	-514.68213	123.90403	1033.97583	-136.01466	-28.22915	1020.24451	-20.65207	-68.63499	1025.67822	-23.81962	-174.84283	1032.09644	-143.09267	179.14224	696.85876	-170.81026	168.02049	657.64301	-204.14433	190.32382	659.56494	-146.39078	176.88519	625.08521	-174.14699	170.16800	518.91516	-110.40080	230.94444	379.17334	-90.99358	213.55270	333.84702	-120.03451	220.61584	341.31305	-59.86962	217.94173	300.79553	-83.66381	190.17517	71.96515	-81.43780	142.25792	33.02776	-41.29086	201.84988	31.72034	-237.19916	-221.17813	696.05914	-187.32722	-203.54404	644.54340	-206.26459	-238.21255	661.77563	-156.78998	-229.43024	625.88776	-182.25191	-216.65347	510.44995	-113.09505	-274.31281	316.25775	-78.49291	-261.27121	291.21820	-107.17391	-263.55475	275.83691	-48.96592	-269.75510	245.75334	-72.13549	-240.83926	75.60995	-94.48083	-196.74165	34.50778	-41.47480	-241.46974	32.66389	-240.65550	162.06006	900.60474	-144.72351	-212.90459	904.24066	-142.85548	15.34200	1022.76733	-20.48322	-131.75005	999.14398	-208.92758	92.36714	996.90094	-198.51613
3	0.01667	134.62231	1485.57007	-78.66921	-146.17542	1385.11108	27.91773	-194.74249	1499.98340	-87.00092	302.19272	1338.12683	-356.80365	75.74935	1402.64490	-444.18732	95.38669	1439.47888	-508.45706	7.70872	1446.34229	-524.86670	-370.76514	1363.38159	-369.60162	-113.53362	1391.68127	-462.24448	-153.45515	1436.35083	-506.06589	-67.15297	1425.53149	-514.75690	123.93367	1033.97400	-136.00198	-28.23626	1020.23346	-20.72405	-68.69357	1025.71179	-23.56022	-174.82156	1032.08716	-143.17705	179.16074	696.85303	-170.79721	168.02454	657.64478	-204.11603	190.34149	659.56647	-146.37082	176.90866	625.09344	-174.14372	170.16422	518.92316	-110.39191	230.93896	379.17050	-90.93812	213.55681	333.84119	-120.02213	220.61340	341.31573	-59.82418	217.90620	300.78436	-83.61276	190.13531	71.96711	-81.45415	142.22028	33.02772	-41.27631	201.84961	31.74456	-237.20479	-221.14090	696.05176	-187.41370	-203.49722	644.53357	-206.33884	-238.17052	661.75598	-156.87575	-229.40309	625.86896	-182.33789	-216.64420	510.44254	-113.12240	-274.32278	316.25677	-78.51360	-261.25931	291.20389	-107.23877	-263.56287	275.85120	-48.96248	-269.75131	245.78024	-72.16919	-240.83064	75.61752	-94.48771	-196.74034	34.48954	-41.50410	-241.46819	32.65308	-240.63805	162.06123	900.60968	-144.69676	-212.88606	904.21881	-142.95195	15.33561	1022.75946	-20.51845	-131.72128	999.14838	-208.97847	92.41173	996.86505	-198.51009
4	0.02500	134.70557	1485.53516	-78.62068	-146.16656	1385.08691	27.92866	-194.67902	1499.95325	-86.97727	302.30505	1338.16357	-356.68219	75.89234	1402.67249	-444.18695	95.48083	1439.41467	-508.52408	7.83521	1446.24060	-524.87457	-370.73840	1363.60974	-369.58755	-113.77756	1391.45447	-462.26233	-153.22392	1436.37878	-506.10580	-66.97781	1425.43469	-514.84167	123.93147	1033.95605	-136.01414	-28.26369	1020.22278	-20.74887	-68.63561	1025.65027	-23.89319	-174.82529	1032.09924	-143.26125	179.17566	696.85571	-170.79076	168.03998	657.63995	-204.11359	190.35939	659.57025	-146.37450	176.89905	625.09955	-174.12015	170.17195	518.93463	-110.33731	230.93556	379.16708	-90.88361	213.55698	333.86319	-119.99988	220.58449	341.31888	-59.77460	217.91530	300.78293	-83.57350	190.16010	71.95573	-81.46661	142.22238	33.02085	-41.29453	201.86293	31.74640	-237.21445	-221.10269	696.04730	-187.46326	-203.41174	644.51837	-206.40193	-238.14992	661.75507	-156.94545	-229.35701	625.86975	-182.40826	-216.64287	510.43390	-113.17851	-274.31528	316.26047	-78.55611	-261.25354	291.20145	-107.26912	-263.57321	275.86057	-48.98999	-269.75027	245.78000	-72.19811	-240.82863	75.62574	-94.44978	-196.71469	34.50615	-41.52198	-241.46780	32.66836	-240.63960	162.08308	900.60614	-144.69514	-212.87016	904.21753	-143.00493	15.32384	1022.74823	-20.55530	-131.69417	999.16333	-209.02466	92.42921	996.88599	-198.51431
